<svg version="1.1" id="Layer_1" xmlns="http://www.w3.org/2000/svg" xmlns:xlink="http://www.w3.org/1999/xlink" x="0px" y="0px"
	 viewBox="0 0 32 32" style="enable-background:new 0 0 32 32;" xml:space="preserve">
	<path class="st0" d="M31,18v-4h-3.2c-0.3-1.8-1-3.5-2-4.9L28,6.8L25.2,4L23,6.2c-1.5-1-3.2-1.7-5-2V1h-4v3.2c-1.8,0.3-3.5,1-4.9,2
		L6.8,4L4,6.8L6.2,9c-1,1.5-1.7,3.2-2,4.9H1v4h3.2c0.3,1.8,1,3.5,2,5L4,25.2L6.8,28L9,25.7c1.5,1,3.2,1.7,4.9,2V31h4v-3.2
		c1.8-0.3,3.5-1,5-2l2.2,2.2l2.8-2.8l-2.3-2.3c1-1.5,1.7-3.2,2-4.9H31z M16,21c-2.8,0-5-2.2-5-5s2.2-5,5-5s5,2.2,5,5S18.8,21,16,21z
		"/>
</svg>
